#!OML:ASF H:\Terrain\Patient Classification 1\Walking\liu\liu.ASF
:FULLY-SPECIFIED
:DEGREES
372
root 10.262164 18.774689 17.696579 6.837028 4.482610 -3.127817
lowerback -6.329301 0.249766 -0.112949
upperback -0.788711 0.260889 3.031138
thorax 2.723545 0.117672 3.209833
lowerneck -21.835110 -6.855970 -13.785970
upperneck 23.487310 -8.851920 13.727340
head 12.393480 -3.556630 5.951627
rclavicle 0.000000 -0.000000
rhumerus -36.823380 19.999870 -92.414413
rradius 48.769600
rwrist -25.250059
rhand -34.398869 -25.847469
rfingers 7.837522
rthumb -5.000050 -58.771793
lclavicle 0.000000 -0.000000
lhumerus -51.327431 -20.050140 107.750061
lradius 31.281799
lwrist 14.067240
lhand -16.682600 -25.061739
lfingers 7.837522
lthumb 12.105169 7.598998
rfemur -14.643419 6.469012 31.747320
rtibia 32.319210
rfoot -20.994381 3.364075
rtoes -17.004129
lfemur -38.412769 6.072297 -19.923639
ltibia 62.141861
lfoot -16.607029 13.226840
ltoes -3.240182
373
root 10.269083 18.778210 17.832321 6.825038 4.094244 -3.436884
lowerback -6.343535 0.466597 0.198455
upperback -0.747517 0.528214 3.067185
thorax 2.762485 0.253397 3.092771
lowerneck -21.984709 -6.871007 -13.701490
upperneck 23.639000 -8.911540 13.776401
head 12.486760 -3.564979 5.950230
rclavicle -0.000000 0.000000
rhumerus -36.239941 20.150789 -92.368431
rradius 48.808430
rwrist -25.577311
rhand -34.419880 -26.168449
rfingers 7.837522
rthumb -5.020301 -59.092442
lclavicle -0.000000 0.000000
lhumerus -51.554691 -19.566580 107.358902
lradius 31.081600
lwrist 13.413620
lhand -16.089701 -24.607111
lfingers 7.837522
lthumb 12.676950 8.022366
rfemur -13.799829 6.783205 32.101082
rtibia 31.626099
rfoot -21.163120 3.474042
rtoes -15.566980
lfemur -39.286610 6.047030 -19.676910
ltibia 60.676880
lfoot -16.420801 12.996941
ltoes -3.564495
374
root 10.274177 18.786570 17.968830 6.774680 3.587342 -3.548633
lowerback -6.168899 0.750960 0.285860
upperback -0.813991 0.906631 3.080385
thorax 2.579291 0.444618 3.082497
lowerneck -22.041580 -6.873680 -13.662110
upperneck 23.978458 -8.911242 13.616019
head 12.614800 -3.576793 5.893349
rclavicle 0.000000 0.000000
rhumerus -35.983753 19.836851 -92.218719
rradius 48.960449
rwrist -25.489420
rhand -34.239151 -26.507471
rfingers 7.837522
rthumb -4.845764 -59.435089
lclavicle 0.000000 0.000000
lhumerus -51.981270 -19.118111 107.196648
lradius 30.860609
lwrist 13.440351
lhand -15.531340 -24.584560
lfingers 7.837522
lthumb 13.215400 8.014083
rfemur -12.818850 7.067324 32.282471
rtibia 30.765240
rfoot -21.463640 3.431879
rtoes -17.318401
lfemur -40.002602 6.097542 -19.738840
ltibia 59.119610
lfoot -16.159330 13.239711
ltoes -6.229905
375
root 10.281634 18.803179 18.108641 6.667947 3.118852 -3.388440
lowerback -6.255480 0.892411 0.039798
upperback -0.713704 1.106083 3.089251
thorax 2.717385 0.540235 3.248531
lowerneck -21.971951 -6.813895 -13.714801
upperneck 24.123550 -8.810747 13.544630
head 12.639330 -3.546191 5.898123
rclavicle -0.000000 -0.000000
rhumerus -35.599407 19.769421 -92.073196
rradius 49.172092
rwrist -25.245331
rhand -34.326271 -26.770479
rfingers 7.837522
rthumb -4.929980 -59.696342
lclavicle -0.000000 -0.000000
lhumerus -52.166290 -18.237999 106.729485
lradius 30.574390
lwrist 12.757690
lhand -15.120160 -24.686199
lfingers 7.837522
lthumb 13.611840 7.888980
rfemur -11.673640 6.900234 32.154430
rtibia 29.833759
rfoot -21.520618 3.652484
rtoes -18.500130
lfemur -40.553593 5.947557 -20.024179
ltibia 57.450027
lfoot -16.372620 13.016191
ltoes -7.303120
376
root 10.292612 18.814621 18.242399 6.572456 2.833853 -3.638701
lowerback -6.303429 0.966203 0.268979
upperback -0.612479 1.184469 3.166339
thorax 2.847449 0.579693 3.207842
lowerneck -21.829941 -6.716600 -13.841740
upperneck 24.087580 -8.720184 13.823260
head 12.604570 -3.488694 6.044060
rclavicle -0.000000 0.000000
rhumerus -35.019268 19.969511 -92.049652
rradius 49.128860
rwrist -25.148090
rhand -34.491268 -26.826580
rfingers 7.837522
rthumb -5.089249 -59.749027
lclavicle -0.000000 0.000000
lhumerus -52.216454 -17.384949 106.122391
lradius 30.237459
lwrist 11.928180
lhand -14.773110 -24.848120
lfingers 7.837522
lthumb 13.946461 7.706534
rfemur -10.588346 6.679453 32.448132
rtibia 28.913280
rfoot -21.448681 4.038012
rtoes -14.993660
lfemur -41.209629 5.714071 -19.718601
ltibia 55.714779
lfoot -16.694040 12.201859
ltoes -6.621362
